<?xml version="1.0" encoding="UTF-8" standalone="no"?>
<!DOCTYPE svg PUBLIC "-//W3C//DTD SVG 1.1//EN"
 "http://www.w3.org/Graphics/SVG/1.1/DTD/svg11.dtd">
<!-- Generated by graphviz version 2.47.3 (20210619.1520)
 -->
<!-- Title: dependencies Pages: 1 -->
<svg width="2908pt" height="247pt"
 viewBox="0.00 0.00 2908.00 246.80" xmlns="http://www.w3.org/2000/svg" xmlns:xlink="http://www.w3.org/1999/xlink">
<g id="graph0" class="graph" transform="scale(1 1) rotate(0) translate(4 242.8)">
<title>dependencies</title>
<polygon fill="white" stroke="transparent" points="-4,4 -4,-242.8 2904,-242.8 2904,4 -4,4"/>
<text text-anchor="middle" x="1450" y="-8.2" font-family="sans-serif" font-size="14.00">dependencies</text>
<g id="clust1" class="cluster">
<title>cluster_AppModule</title>
<polygon fill="none" stroke="black" stroke-dasharray="1,5" points="8,-32.8 8,-230.8 2892,-230.8 2892,-32.8 8,-32.8"/>
</g>
<g id="clust20" class="cluster">
<title>cluster_AppModule_imports</title>
<polygon fill="none" stroke="black" points="2740,-40.8 2740,-92.8 2884,-92.8 2884,-40.8 2740,-40.8"/>
</g>
<g id="clust22" class="cluster">
<title>cluster_AppModule_bootstrap</title>
<polygon fill="none" stroke="black" points="1511,-170.8 1511,-222.8 1635,-222.8 1635,-170.8 1511,-170.8"/>
</g>
<g id="clust2" class="cluster">
<title>cluster_AppModule_declarations</title>
<polygon fill="none" stroke="black" points="16,-40.8 16,-92.8 2732,-92.8 2732,-40.8 16,-40.8"/>
</g>
<!-- AlertasComponent -->
<g id="node1" class="node">
<title>AlertasComponent</title>
<polygon fill="#ffffb3" stroke="black" points="2723.75,-84.8 2602.25,-84.8 2602.25,-48.8 2723.75,-48.8 2723.75,-84.8"/>
<text text-anchor="middle" x="2663" y="-62.6" font-family="Times,serif" font-size="14.00">AlertasComponent</text>
</g>
<!-- AppModule -->
<g id="node18" class="node">
<title>AppModule</title>
<polygon fill="#8dd3c7" stroke="black" points="1614.66,-149.8 1611.66,-153.8 1590.66,-153.8 1587.66,-149.8 1531.34,-149.8 1531.34,-113.8 1614.66,-113.8 1614.66,-149.8"/>
<text text-anchor="middle" x="1573" y="-127.6" font-family="Times,serif" font-size="14.00">AppModule</text>
</g>
<!-- AlertasComponent&#45;&gt;AppModule -->
<g id="edge1" class="edge">
<title>AlertasComponent&#45;&gt;AppModule</title>
<path fill="none" stroke="black" d="M2663,-84.96C2663,-107.15 2663,-141.8 2663,-141.8 2663,-141.8 1624.73,-141.8 1624.73,-141.8"/>
<polygon fill="black" stroke="black" points="1624.73,-138.3 1614.73,-141.8 1624.73,-145.3 1624.73,-138.3"/>
</g>
<!-- AppComponent -->
<g id="node2" class="node">
<title>AppComponent</title>
<polygon fill="#ffffb3" stroke="black" points="2583.94,-84.8 2478.06,-84.8 2478.06,-48.8 2583.94,-48.8 2583.94,-84.8"/>
<text text-anchor="middle" x="2531" y="-62.6" font-family="Times,serif" font-size="14.00">AppComponent</text>
</g>
<!-- AppComponent&#45;&gt;AppModule -->
<g id="edge2" class="edge">
<title>AppComponent&#45;&gt;AppModule</title>
<path fill="none" stroke="black" d="M2531,-85.08C2531,-106.12 2531,-137.8 2531,-137.8 2531,-137.8 1624.78,-137.8 1624.78,-137.8"/>
<polygon fill="black" stroke="black" points="1624.78,-134.3 1614.78,-137.8 1624.78,-141.3 1624.78,-134.3"/>
</g>
<!-- CadastrarComponent -->
<g id="node3" class="node">
<title>CadastrarComponent</title>
<polygon fill="#ffffb3" stroke="black" points="2460.47,-84.8 2325.53,-84.8 2325.53,-48.8 2460.47,-48.8 2460.47,-84.8"/>
<text text-anchor="middle" x="2393" y="-62.6" font-family="Times,serif" font-size="14.00">CadastrarComponent</text>
</g>
<!-- CadastrarComponent&#45;&gt;AppModule -->
<g id="edge3" class="edge">
<title>CadastrarComponent&#45;&gt;AppModule</title>
<path fill="none" stroke="black" d="M2393,-85.11C2393,-104.95 2393,-133.8 2393,-133.8 2393,-133.8 1624.79,-133.8 1624.79,-133.8"/>
<polygon fill="black" stroke="black" points="1624.79,-130.3 1614.79,-133.8 1624.79,-137.3 1624.79,-130.3"/>
</g>
<!-- EntrarComponent -->
<g id="node4" class="node">
<title>EntrarComponent</title>
<polygon fill="#ffffb3" stroke="black" points="2307.31,-84.8 2190.69,-84.8 2190.69,-48.8 2307.31,-48.8 2307.31,-84.8"/>
<text text-anchor="middle" x="2249" y="-62.6" font-family="Times,serif" font-size="14.00">EntrarComponent</text>
</g>
<!-- EntrarComponent&#45;&gt;AppModule -->
<g id="edge4" class="edge">
<title>EntrarComponent&#45;&gt;AppModule</title>
<path fill="none" stroke="black" d="M2249,-85.02C2249,-103.63 2249,-129.8 2249,-129.8 2249,-129.8 1624.78,-129.8 1624.78,-129.8"/>
<polygon fill="black" stroke="black" points="1624.78,-126.3 1614.78,-129.8 1624.78,-133.3 1624.78,-126.3"/>
</g>
<!-- InicioComponent -->
<g id="node5" class="node">
<title>InicioComponent</title>
<polygon fill="#ffffb3" stroke="black" points="2172.99,-84.8 2059.01,-84.8 2059.01,-48.8 2172.99,-48.8 2172.99,-84.8"/>
<text text-anchor="middle" x="2116" y="-62.6" font-family="Times,serif" font-size="14.00">InicioComponent</text>
</g>
<!-- InicioComponent&#45;&gt;AppModule -->
<g id="edge5" class="edge">
<title>InicioComponent&#45;&gt;AppModule</title>
<path fill="none" stroke="black" d="M2116,-84.82C2116,-102.17 2116,-125.8 2116,-125.8 2116,-125.8 1624.71,-125.8 1624.71,-125.8"/>
<polygon fill="black" stroke="black" points="1624.71,-122.3 1614.71,-125.8 1624.71,-129.3 1624.71,-122.3"/>
</g>
<!-- MenuComponent -->
<g id="node6" class="node">
<title>MenuComponent</title>
<polygon fill="#ffffb3" stroke="black" points="2040.99,-84.8 1927.01,-84.8 1927.01,-48.8 2040.99,-48.8 2040.99,-84.8"/>
<text text-anchor="middle" x="1984" y="-62.6" font-family="Times,serif" font-size="14.00">MenuComponent</text>
</g>
<!-- MenuComponent&#45;&gt;AppModule -->
<g id="edge6" class="edge">
<title>MenuComponent&#45;&gt;AppModule</title>
<path fill="none" stroke="black" d="M1984,-84.81C1984,-100.85 1984,-121.8 1984,-121.8 1984,-121.8 1624.67,-121.8 1624.67,-121.8"/>
<polygon fill="black" stroke="black" points="1624.67,-118.3 1614.67,-121.8 1624.67,-125.3 1624.67,-118.3"/>
</g>
<!-- MenuHomeComponent -->
<g id="node7" class="node">
<title>MenuHomeComponent</title>
<polygon fill="#ffffb3" stroke="black" points="1909.2,-84.8 1760.8,-84.8 1760.8,-48.8 1909.2,-48.8 1909.2,-84.8"/>
<text text-anchor="middle" x="1835" y="-62.6" font-family="Times,serif" font-size="14.00">MenuHomeComponent</text>
</g>
<!-- MenuHomeComponent&#45;&gt;AppModule -->
<g id="edge7" class="edge">
<title>MenuHomeComponent&#45;&gt;AppModule</title>
<path fill="none" stroke="black" d="M1835,-84.92C1835,-99.58 1835,-117.8 1835,-117.8 1835,-117.8 1624.8,-117.8 1624.8,-117.8"/>
<polygon fill="black" stroke="black" points="1624.8,-114.3 1614.8,-117.8 1624.8,-121.3 1624.8,-114.3"/>
</g>
<!-- RecursoDeleteComponent -->
<g id="node8" class="node">
<title>RecursoDeleteComponent</title>
<polygon fill="#ffffb3" stroke="black" points="1742.74,-84.8 1579.26,-84.8 1579.26,-48.8 1742.74,-48.8 1742.74,-84.8"/>
<text text-anchor="middle" x="1661" y="-62.6" font-family="Times,serif" font-size="14.00">RecursoDeleteComponent</text>
</g>
<!-- RecursoDeleteComponent&#45;&gt;AppModule -->
<g id="edge8" class="edge">
<title>RecursoDeleteComponent&#45;&gt;AppModule</title>
<path fill="none" stroke="black" d="M1596.98,-84.91C1596.98,-84.91 1596.98,-103.79 1596.98,-103.79"/>
<polygon fill="black" stroke="black" points="1593.48,-103.79 1596.98,-113.79 1600.48,-103.79 1593.48,-103.79"/>
</g>
<!-- RecursoEditComponent -->
<g id="node9" class="node">
<title>RecursoEditComponent</title>
<polygon fill="#ffffb3" stroke="black" points="1561.04,-84.8 1410.96,-84.8 1410.96,-48.8 1561.04,-48.8 1561.04,-84.8"/>
<text text-anchor="middle" x="1486" y="-62.6" font-family="Times,serif" font-size="14.00">RecursoEditComponent</text>
</g>
<!-- RecursoEditComponent&#45;&gt;AppModule -->
<g id="edge9" class="edge">
<title>RecursoEditComponent&#45;&gt;AppModule</title>
<path fill="none" stroke="black" d="M1546.22,-84.91C1546.22,-84.91 1546.22,-103.79 1546.22,-103.79"/>
<polygon fill="black" stroke="black" points="1542.72,-103.79 1546.22,-113.79 1549.72,-103.79 1542.72,-103.79"/>
</g>
<!-- ReservaComponent -->
<g id="node10" class="node">
<title>ReservaComponent</title>
<polygon fill="#ffffb3" stroke="black" points="1393.42,-84.8 1266.58,-84.8 1266.58,-48.8 1393.42,-48.8 1393.42,-84.8"/>
<text text-anchor="middle" x="1330" y="-62.6" font-family="Times,serif" font-size="14.00">ReservaComponent</text>
</g>
<!-- ReservaComponent&#45;&gt;AppModule -->
<g id="edge10" class="edge">
<title>ReservaComponent&#45;&gt;AppModule</title>
<path fill="none" stroke="black" d="M1330,-84.92C1330,-99.58 1330,-117.8 1330,-117.8 1330,-117.8 1521.23,-117.8 1521.23,-117.8"/>
<polygon fill="black" stroke="black" points="1521.23,-121.3 1531.23,-117.8 1521.23,-114.3 1521.23,-121.3"/>
</g>
<!-- ReservaDeleteComponent -->
<g id="node11" class="node">
<title>ReservaDeleteComponent</title>
<polygon fill="#ffffb3" stroke="black" points="1248.45,-84.8 1085.55,-84.8 1085.55,-48.8 1248.45,-48.8 1248.45,-84.8"/>
<text text-anchor="middle" x="1167" y="-62.6" font-family="Times,serif" font-size="14.00">ReservaDeleteComponent</text>
</g>
<!-- ReservaDeleteComponent&#45;&gt;AppModule -->
<g id="edge11" class="edge">
<title>ReservaDeleteComponent&#45;&gt;AppModule</title>
<path fill="none" stroke="black" d="M1167,-84.81C1167,-100.85 1167,-121.8 1167,-121.8 1167,-121.8 1521.08,-121.8 1521.08,-121.8"/>
<polygon fill="black" stroke="black" points="1521.08,-125.3 1531.08,-121.8 1521.08,-118.3 1521.08,-125.3"/>
</g>
<!-- ReservaEditComponent -->
<g id="node12" class="node">
<title>ReservaEditComponent</title>
<polygon fill="#ffffb3" stroke="black" points="1067.75,-84.8 918.25,-84.8 918.25,-48.8 1067.75,-48.8 1067.75,-84.8"/>
<text text-anchor="middle" x="993" y="-62.6" font-family="Times,serif" font-size="14.00">ReservaEditComponent</text>
</g>
<!-- ReservaEditComponent&#45;&gt;AppModule -->
<g id="edge12" class="edge">
<title>ReservaEditComponent&#45;&gt;AppModule</title>
<path fill="none" stroke="black" d="M993,-84.82C993,-102.17 993,-125.8 993,-125.8 993,-125.8 1521.29,-125.8 1521.29,-125.8"/>
<polygon fill="black" stroke="black" points="1521.29,-129.3 1531.29,-125.8 1521.29,-122.3 1521.29,-129.3"/>
</g>
<!-- RodapeComponent -->
<g id="node13" class="node">
<title>RodapeComponent</title>
<polygon fill="#ffffb3" stroke="black" points="900.1,-84.8 775.9,-84.8 775.9,-48.8 900.1,-48.8 900.1,-84.8"/>
<text text-anchor="middle" x="838" y="-62.6" font-family="Times,serif" font-size="14.00">RodapeComponent</text>
</g>
<!-- RodapeComponent&#45;&gt;AppModule -->
<g id="edge13" class="edge">
<title>RodapeComponent&#45;&gt;AppModule</title>
<path fill="none" stroke="black" d="M838,-85.02C838,-103.63 838,-129.8 838,-129.8 838,-129.8 1521.11,-129.8 1521.11,-129.8"/>
<polygon fill="black" stroke="black" points="1521.11,-133.3 1531.11,-129.8 1521.11,-126.3 1521.11,-133.3"/>
</g>
<!-- SolicitacaoComponent -->
<g id="node14" class="node">
<title>SolicitacaoComponent</title>
<polygon fill="#ffffb3" stroke="black" points="757.54,-84.8 614.46,-84.8 614.46,-48.8 757.54,-48.8 757.54,-84.8"/>
<text text-anchor="middle" x="686" y="-62.6" font-family="Times,serif" font-size="14.00">SolicitacaoComponent</text>
</g>
<!-- SolicitacaoComponent&#45;&gt;AppModule -->
<g id="edge14" class="edge">
<title>SolicitacaoComponent&#45;&gt;AppModule</title>
<path fill="none" stroke="black" d="M686,-85.11C686,-104.95 686,-133.8 686,-133.8 686,-133.8 1521.11,-133.8 1521.11,-133.8"/>
<polygon fill="black" stroke="black" points="1521.11,-137.3 1531.11,-133.8 1521.11,-130.3 1521.11,-137.3"/>
</g>
<!-- SolicitacaoDeleteComponent -->
<g id="node15" class="node">
<title>SolicitacaoDeleteComponent</title>
<polygon fill="#ffffb3" stroke="black" points="596.07,-84.8 415.93,-84.8 415.93,-48.8 596.07,-48.8 596.07,-84.8"/>
<text text-anchor="middle" x="506" y="-62.6" font-family="Times,serif" font-size="14.00">SolicitacaoDeleteComponent</text>
</g>
<!-- SolicitacaoDeleteComponent&#45;&gt;AppModule -->
<g id="edge15" class="edge">
<title>SolicitacaoDeleteComponent&#45;&gt;AppModule</title>
<path fill="none" stroke="black" d="M506,-85.08C506,-106.12 506,-137.8 506,-137.8 506,-137.8 1521.17,-137.8 1521.17,-137.8"/>
<polygon fill="black" stroke="black" points="1521.17,-141.3 1531.17,-137.8 1521.17,-134.3 1521.17,-141.3"/>
</g>
<!-- SolicitacaoEditComponent -->
<g id="node16" class="node">
<title>SolicitacaoEditComponent</title>
<polygon fill="#ffffb3" stroke="black" points="398.37,-84.8 231.63,-84.8 231.63,-48.8 398.37,-48.8 398.37,-84.8"/>
<text text-anchor="middle" x="315" y="-62.6" font-family="Times,serif" font-size="14.00">SolicitacaoEditComponent</text>
</g>
<!-- SolicitacaoEditComponent&#45;&gt;AppModule -->
<g id="edge16" class="edge">
<title>SolicitacaoEditComponent&#45;&gt;AppModule</title>
<path fill="none" stroke="black" d="M315,-84.96C315,-107.15 315,-141.8 315,-141.8 315,-141.8 1521.14,-141.8 1521.14,-141.8"/>
<polygon fill="black" stroke="black" points="1521.14,-145.3 1531.14,-141.8 1521.14,-138.3 1521.14,-145.3"/>
</g>
<!-- SolicitacaoRecursoComponent -->
<g id="node17" class="node">
<title>SolicitacaoRecursoComponent</title>
<polygon fill="#ffffb3" stroke="black" points="213.91,-84.8 24.09,-84.8 24.09,-48.8 213.91,-48.8 213.91,-84.8"/>
<text text-anchor="middle" x="119" y="-62.6" font-family="Times,serif" font-size="14.00">SolicitacaoRecursoComponent</text>
</g>
<!-- SolicitacaoRecursoComponent&#45;&gt;AppModule -->
<g id="edge17" class="edge">
<title>SolicitacaoRecursoComponent&#45;&gt;AppModule</title>
<path fill="none" stroke="black" d="M119,-85.12C119,-108.46 119,-145.8 119,-145.8 119,-145.8 1521.05,-145.8 1521.05,-145.8"/>
<polygon fill="black" stroke="black" points="1521.05,-149.3 1531.05,-145.8 1521.05,-142.3 1521.05,-149.3"/>
</g>
<!-- AppComponent  -->
<g id="node20" class="node">
<title>AppComponent </title>
<polygon fill="#80b1d3" stroke="black" points="1627.44,-214.8 1518.56,-214.8 1518.56,-178.8 1627.44,-178.8 1627.44,-214.8"/>
<text text-anchor="middle" x="1573" y="-192.6" font-family="Times,serif" font-size="14.00">AppComponent </text>
</g>
<!-- AppModule&#45;&gt;AppComponent  -->
<g id="edge19" class="edge">
<title>AppModule&#45;&gt;AppComponent </title>
<path fill="none" stroke="black" stroke-dasharray="1,5" d="M1573,-149.91C1573,-149.91 1573,-168.79 1573,-168.79"/>
<polygon fill="black" stroke="black" points="1569.5,-168.79 1573,-178.79 1576.5,-168.79 1569.5,-168.79"/>
</g>
<!-- AppRoutingModule -->
<g id="node19" class="node">
<title>AppRoutingModule</title>
<polygon fill="#8dd3c7" stroke="black" points="2876.27,-84.8 2873.27,-88.8 2852.27,-88.8 2849.27,-84.8 2747.73,-84.8 2747.73,-48.8 2876.27,-48.8 2876.27,-84.8"/>
<text text-anchor="middle" x="2812" y="-62.6" font-family="Times,serif" font-size="14.00">AppRoutingModule</text>
</g>
<!-- AppRoutingModule&#45;&gt;AppModule -->
<g id="edge18" class="edge">
<title>AppRoutingModule&#45;&gt;AppModule</title>
<path fill="none" stroke="black" d="M2812,-85.12C2812,-108.46 2812,-145.8 2812,-145.8 2812,-145.8 1624.93,-145.8 1624.93,-145.8"/>
<polygon fill="black" stroke="black" points="1624.93,-142.3 1614.93,-145.8 1624.93,-149.3 1624.93,-142.3"/>
</g>
</g>
</svg>
