<?xml version="1.0" encoding="UTF-8" standalone="no"?>
<!DOCTYPE svg PUBLIC "-//W3C//DTD SVG 1.1//EN"
 "http://www.w3.org/Graphics/SVG/1.1/DTD/svg11.dtd">
<!-- Generated by graphviz version 2.47.3 (20210619.1520)
 -->
<!-- Title: dependencies Pages: 1 -->
<svg width="2908pt" height="247pt"
 viewBox="0.00 0.00 2908.00 246.80" xmlns="http://www.w3.org/2000/svg" xmlns:xlink="http://www.w3.org/1999/xlink">
<g id="graph0" class="graph" transform="scale(1 1) rotate(0) translate(4 242.8)">
<title>dependencies</title>
<polygon fill="white" stroke="transparent" points="-4,4 -4,-242.8 2904,-242.8 2904,4 -4,4"/>
<text text-anchor="middle" x="1450" y="-8.2" font-family="sans-serif" font-size="14.00">dependencies</text>
<g id="clust1" class="cluster">
<title>cluster_AppModule</title>
<polygon fill="none" stroke="black" stroke-dasharray="1,5" points="8,-32.8 8,-230.8 2892,-230.8 2892,-32.8 8,-32.8"/>
</g>
<g id="clust2" class="cluster">
<title>cluster_AppModule_declarations</title>
<polygon fill="none" stroke="black" points="168,-40.8 168,-92.8 2884,-92.8 2884,-40.8 168,-40.8"/>
</g>
<g id="clust20" class="cluster">
<title>cluster_AppModule_imports</title>
<polygon fill="none" stroke="black" points="16,-40.8 16,-92.8 160,-92.8 160,-40.8 16,-40.8"/>
</g>
<g id="clust22" class="cluster">
<title>cluster_AppModule_bootstrap</title>
<polygon fill="none" stroke="black" points="1498,-170.8 1498,-222.8 1622,-222.8 1622,-170.8 1498,-170.8"/>
</g>
<!-- AlertasComponent -->
<g id="node1" class="node">
<title>AlertasComponent</title>
<polygon fill="#ffffb3" stroke="black" points="2875.75,-84.8 2754.25,-84.8 2754.25,-48.8 2875.75,-48.8 2875.75,-84.8"/>
<text text-anchor="middle" x="2815" y="-62.6" font-family="Times,serif" font-size="14.00">AlertasComponent</text>
</g>
<!-- AppModule -->
<g id="node18" class="node">
<title>AppModule</title>
<polygon fill="#8dd3c7" stroke="black" points="1601.66,-149.8 1598.66,-153.8 1577.66,-153.8 1574.66,-149.8 1518.34,-149.8 1518.34,-113.8 1601.66,-113.8 1601.66,-149.8"/>
<text text-anchor="middle" x="1560" y="-127.6" font-family="Times,serif" font-size="14.00">AppModule</text>
</g>
<!-- AlertasComponent&#45;&gt;AppModule -->
<g id="edge1" class="edge">
<title>AlertasComponent&#45;&gt;AppModule</title>
<path fill="none" stroke="black" d="M2815,-85.12C2815,-108.46 2815,-145.8 2815,-145.8 2815,-145.8 1611.76,-145.8 1611.76,-145.8"/>
<polygon fill="black" stroke="black" points="1611.76,-142.3 1601.76,-145.8 1611.76,-149.3 1611.76,-142.3"/>
</g>
<!-- AppComponent -->
<g id="node2" class="node">
<title>AppComponent</title>
<polygon fill="#ffffb3" stroke="black" points="2735.94,-84.8 2630.06,-84.8 2630.06,-48.8 2735.94,-48.8 2735.94,-84.8"/>
<text text-anchor="middle" x="2683" y="-62.6" font-family="Times,serif" font-size="14.00">AppComponent</text>
</g>
<!-- AppComponent&#45;&gt;AppModule -->
<g id="edge2" class="edge">
<title>AppComponent&#45;&gt;AppModule</title>
<path fill="none" stroke="black" d="M2683,-84.96C2683,-107.15 2683,-141.8 2683,-141.8 2683,-141.8 1611.97,-141.8 1611.97,-141.8"/>
<polygon fill="black" stroke="black" points="1611.97,-138.3 1601.97,-141.8 1611.97,-145.3 1611.97,-138.3"/>
</g>
<!-- CadastrarComponent -->
<g id="node3" class="node">
<title>CadastrarComponent</title>
<polygon fill="#ffffb3" stroke="black" points="2612.47,-84.8 2477.53,-84.8 2477.53,-48.8 2612.47,-48.8 2612.47,-84.8"/>
<text text-anchor="middle" x="2545" y="-62.6" font-family="Times,serif" font-size="14.00">CadastrarComponent</text>
</g>
<!-- CadastrarComponent&#45;&gt;AppModule -->
<g id="edge3" class="edge">
<title>CadastrarComponent&#45;&gt;AppModule</title>
<path fill="none" stroke="black" d="M2545,-85.08C2545,-106.12 2545,-137.8 2545,-137.8 2545,-137.8 1611.7,-137.8 1611.7,-137.8"/>
<polygon fill="black" stroke="black" points="1611.7,-134.3 1601.7,-137.8 1611.7,-141.3 1611.7,-134.3"/>
</g>
<!-- EntrarComponent -->
<g id="node4" class="node">
<title>EntrarComponent</title>
<polygon fill="#ffffb3" stroke="black" points="2459.31,-84.8 2342.69,-84.8 2342.69,-48.8 2459.31,-48.8 2459.31,-84.8"/>
<text text-anchor="middle" x="2401" y="-62.6" font-family="Times,serif" font-size="14.00">EntrarComponent</text>
</g>
<!-- EntrarComponent&#45;&gt;AppModule -->
<g id="edge4" class="edge">
<title>EntrarComponent&#45;&gt;AppModule</title>
<path fill="none" stroke="black" d="M2401,-85.11C2401,-104.95 2401,-133.8 2401,-133.8 2401,-133.8 1611.71,-133.8 1611.71,-133.8"/>
<polygon fill="black" stroke="black" points="1611.71,-130.3 1601.71,-133.8 1611.71,-137.3 1611.71,-130.3"/>
</g>
<!-- InicioComponent -->
<g id="node5" class="node">
<title>InicioComponent</title>
<polygon fill="#ffffb3" stroke="black" points="2324.99,-84.8 2211.01,-84.8 2211.01,-48.8 2324.99,-48.8 2324.99,-84.8"/>
<text text-anchor="middle" x="2268" y="-62.6" font-family="Times,serif" font-size="14.00">InicioComponent</text>
</g>
<!-- InicioComponent&#45;&gt;AppModule -->
<g id="edge5" class="edge">
<title>InicioComponent&#45;&gt;AppModule</title>
<path fill="none" stroke="black" d="M2268,-85.02C2268,-103.63 2268,-129.8 2268,-129.8 2268,-129.8 1611.91,-129.8 1611.91,-129.8"/>
<polygon fill="black" stroke="black" points="1611.91,-126.3 1601.91,-129.8 1611.91,-133.3 1611.91,-126.3"/>
</g>
<!-- MenuComponent -->
<g id="node6" class="node">
<title>MenuComponent</title>
<polygon fill="#ffffb3" stroke="black" points="2192.99,-84.8 2079.01,-84.8 2079.01,-48.8 2192.99,-48.8 2192.99,-84.8"/>
<text text-anchor="middle" x="2136" y="-62.6" font-family="Times,serif" font-size="14.00">MenuComponent</text>
</g>
<!-- MenuComponent&#45;&gt;AppModule -->
<g id="edge6" class="edge">
<title>MenuComponent&#45;&gt;AppModule</title>
<path fill="none" stroke="black" d="M2136,-84.82C2136,-102.17 2136,-125.8 2136,-125.8 2136,-125.8 1611.89,-125.8 1611.89,-125.8"/>
<polygon fill="black" stroke="black" points="1611.89,-122.3 1601.89,-125.8 1611.89,-129.3 1611.89,-122.3"/>
</g>
<!-- MenuHomeComponent -->
<g id="node7" class="node">
<title>MenuHomeComponent</title>
<polygon fill="#ffffb3" stroke="black" points="2061.2,-84.8 1912.8,-84.8 1912.8,-48.8 2061.2,-48.8 2061.2,-84.8"/>
<text text-anchor="middle" x="1987" y="-62.6" font-family="Times,serif" font-size="14.00">MenuHomeComponent</text>
</g>
<!-- MenuHomeComponent&#45;&gt;AppModule -->
<g id="edge7" class="edge">
<title>MenuHomeComponent&#45;&gt;AppModule</title>
<path fill="none" stroke="black" d="M1987,-84.81C1987,-100.85 1987,-121.8 1987,-121.8 1987,-121.8 1611.72,-121.8 1611.72,-121.8"/>
<polygon fill="black" stroke="black" points="1611.72,-118.3 1601.72,-121.8 1611.72,-125.3 1611.72,-118.3"/>
</g>
<!-- RecursoDeleteComponent -->
<g id="node8" class="node">
<title>RecursoDeleteComponent</title>
<polygon fill="#ffffb3" stroke="black" points="1894.74,-84.8 1731.26,-84.8 1731.26,-48.8 1894.74,-48.8 1894.74,-84.8"/>
<text text-anchor="middle" x="1813" y="-62.6" font-family="Times,serif" font-size="14.00">RecursoDeleteComponent</text>
</g>
<!-- RecursoDeleteComponent&#45;&gt;AppModule -->
<g id="edge8" class="edge">
<title>RecursoDeleteComponent&#45;&gt;AppModule</title>
<path fill="none" stroke="black" d="M1813,-84.92C1813,-99.58 1813,-117.8 1813,-117.8 1813,-117.8 1611.78,-117.8 1611.78,-117.8"/>
<polygon fill="black" stroke="black" points="1611.78,-114.3 1601.78,-117.8 1611.78,-121.3 1611.78,-114.3"/>
</g>
<!-- RecursoEditComponent -->
<g id="node9" class="node">
<title>RecursoEditComponent</title>
<polygon fill="#ffffb3" stroke="black" points="1713.04,-84.8 1562.96,-84.8 1562.96,-48.8 1713.04,-48.8 1713.04,-84.8"/>
<text text-anchor="middle" x="1638" y="-62.6" font-family="Times,serif" font-size="14.00">RecursoEditComponent</text>
</g>
<!-- RecursoEditComponent&#45;&gt;AppModule -->
<g id="edge9" class="edge">
<title>RecursoEditComponent&#45;&gt;AppModule</title>
<path fill="none" stroke="black" d="M1582.28,-84.91C1582.28,-84.91 1582.28,-103.79 1582.28,-103.79"/>
<polygon fill="black" stroke="black" points="1578.78,-103.79 1582.28,-113.79 1585.78,-103.79 1578.78,-103.79"/>
</g>
<!-- ReservaComponent -->
<g id="node10" class="node">
<title>ReservaComponent</title>
<polygon fill="#ffffb3" stroke="black" points="1545.42,-84.8 1418.58,-84.8 1418.58,-48.8 1545.42,-48.8 1545.42,-84.8"/>
<text text-anchor="middle" x="1482" y="-62.6" font-family="Times,serif" font-size="14.00">ReservaComponent</text>
</g>
<!-- ReservaComponent&#45;&gt;AppModule -->
<g id="edge10" class="edge">
<title>ReservaComponent&#45;&gt;AppModule</title>
<path fill="none" stroke="black" d="M1531.69,-84.91C1531.69,-84.91 1531.69,-103.79 1531.69,-103.79"/>
<polygon fill="black" stroke="black" points="1528.19,-103.79 1531.69,-113.79 1535.19,-103.79 1528.19,-103.79"/>
</g>
<!-- ReservaDeleteComponent -->
<g id="node11" class="node">
<title>ReservaDeleteComponent</title>
<polygon fill="#ffffb3" stroke="black" points="1400.45,-84.8 1237.55,-84.8 1237.55,-48.8 1400.45,-48.8 1400.45,-84.8"/>
<text text-anchor="middle" x="1319" y="-62.6" font-family="Times,serif" font-size="14.00">ReservaDeleteComponent</text>
</g>
<!-- ReservaDeleteComponent&#45;&gt;AppModule -->
<g id="edge11" class="edge">
<title>ReservaDeleteComponent&#45;&gt;AppModule</title>
<path fill="none" stroke="black" d="M1319,-84.92C1319,-99.58 1319,-117.8 1319,-117.8 1319,-117.8 1508.3,-117.8 1508.3,-117.8"/>
<polygon fill="black" stroke="black" points="1508.3,-121.3 1518.3,-117.8 1508.3,-114.3 1508.3,-121.3"/>
</g>
<!-- ReservaEditComponent -->
<g id="node12" class="node">
<title>ReservaEditComponent</title>
<polygon fill="#ffffb3" stroke="black" points="1219.75,-84.8 1070.25,-84.8 1070.25,-48.8 1219.75,-48.8 1219.75,-84.8"/>
<text text-anchor="middle" x="1145" y="-62.6" font-family="Times,serif" font-size="14.00">ReservaEditComponent</text>
</g>
<!-- ReservaEditComponent&#45;&gt;AppModule -->
<g id="edge12" class="edge">
<title>ReservaEditComponent&#45;&gt;AppModule</title>
<path fill="none" stroke="black" d="M1145,-84.81C1145,-100.85 1145,-121.8 1145,-121.8 1145,-121.8 1508.31,-121.8 1508.31,-121.8"/>
<polygon fill="black" stroke="black" points="1508.31,-125.3 1518.31,-121.8 1508.31,-118.3 1508.31,-125.3"/>
</g>
<!-- RodapeComponent -->
<g id="node13" class="node">
<title>RodapeComponent</title>
<polygon fill="#ffffb3" stroke="black" points="1052.1,-84.8 927.9,-84.8 927.9,-48.8 1052.1,-48.8 1052.1,-84.8"/>
<text text-anchor="middle" x="990" y="-62.6" font-family="Times,serif" font-size="14.00">RodapeComponent</text>
</g>
<!-- RodapeComponent&#45;&gt;AppModule -->
<g id="edge13" class="edge">
<title>RodapeComponent&#45;&gt;AppModule</title>
<path fill="none" stroke="black" d="M990,-84.82C990,-102.17 990,-125.8 990,-125.8 990,-125.8 1508.09,-125.8 1508.09,-125.8"/>
<polygon fill="black" stroke="black" points="1508.09,-129.3 1518.09,-125.8 1508.09,-122.3 1508.09,-129.3"/>
</g>
<!-- SolicitacaoComponent -->
<g id="node14" class="node">
<title>SolicitacaoComponent</title>
<polygon fill="#ffffb3" stroke="black" points="909.54,-84.8 766.46,-84.8 766.46,-48.8 909.54,-48.8 909.54,-84.8"/>
<text text-anchor="middle" x="838" y="-62.6" font-family="Times,serif" font-size="14.00">SolicitacaoComponent</text>
</g>
<!-- SolicitacaoComponent&#45;&gt;AppModule -->
<g id="edge14" class="edge">
<title>SolicitacaoComponent&#45;&gt;AppModule</title>
<path fill="none" stroke="black" d="M838,-85.02C838,-103.63 838,-129.8 838,-129.8 838,-129.8 1508.33,-129.8 1508.33,-129.8"/>
<polygon fill="black" stroke="black" points="1508.33,-133.3 1518.33,-129.8 1508.33,-126.3 1508.33,-133.3"/>
</g>
<!-- SolicitacaoDeleteComponent -->
<g id="node15" class="node">
<title>SolicitacaoDeleteComponent</title>
<polygon fill="#ffffb3" stroke="black" points="748.07,-84.8 567.93,-84.8 567.93,-48.8 748.07,-48.8 748.07,-84.8"/>
<text text-anchor="middle" x="658" y="-62.6" font-family="Times,serif" font-size="14.00">SolicitacaoDeleteComponent</text>
</g>
<!-- SolicitacaoDeleteComponent&#45;&gt;AppModule -->
<g id="edge15" class="edge">
<title>SolicitacaoDeleteComponent&#45;&gt;AppModule</title>
<path fill="none" stroke="black" d="M658,-85.11C658,-104.95 658,-133.8 658,-133.8 658,-133.8 1508.3,-133.8 1508.3,-133.8"/>
<polygon fill="black" stroke="black" points="1508.3,-137.3 1518.3,-133.8 1508.3,-130.3 1508.3,-137.3"/>
</g>
<!-- SolicitacaoEditComponent -->
<g id="node16" class="node">
<title>SolicitacaoEditComponent</title>
<polygon fill="#ffffb3" stroke="black" points="550.37,-84.8 383.63,-84.8 383.63,-48.8 550.37,-48.8 550.37,-84.8"/>
<text text-anchor="middle" x="467" y="-62.6" font-family="Times,serif" font-size="14.00">SolicitacaoEditComponent</text>
</g>
<!-- SolicitacaoEditComponent&#45;&gt;AppModule -->
<g id="edge16" class="edge">
<title>SolicitacaoEditComponent&#45;&gt;AppModule</title>
<path fill="none" stroke="black" d="M467,-85.08C467,-106.12 467,-137.8 467,-137.8 467,-137.8 1508.16,-137.8 1508.16,-137.8"/>
<polygon fill="black" stroke="black" points="1508.16,-141.3 1518.16,-137.8 1508.16,-134.3 1508.16,-141.3"/>
</g>
<!-- SolicitacaoRecursoComponent -->
<g id="node17" class="node">
<title>SolicitacaoRecursoComponent</title>
<polygon fill="#ffffb3" stroke="black" points="365.91,-84.8 176.09,-84.8 176.09,-48.8 365.91,-48.8 365.91,-84.8"/>
<text text-anchor="middle" x="271" y="-62.6" font-family="Times,serif" font-size="14.00">SolicitacaoRecursoComponent</text>
</g>
<!-- SolicitacaoRecursoComponent&#45;&gt;AppModule -->
<g id="edge17" class="edge">
<title>SolicitacaoRecursoComponent&#45;&gt;AppModule</title>
<path fill="none" stroke="black" d="M271,-84.96C271,-107.15 271,-141.8 271,-141.8 271,-141.8 1508.21,-141.8 1508.21,-141.8"/>
<polygon fill="black" stroke="black" points="1508.21,-145.3 1518.21,-141.8 1508.21,-138.3 1508.21,-145.3"/>
</g>
<!-- AppComponent  -->
<g id="node20" class="node">
<title>AppComponent </title>
<polygon fill="#80b1d3" stroke="black" points="1614.44,-214.8 1505.56,-214.8 1505.56,-178.8 1614.44,-178.8 1614.44,-214.8"/>
<text text-anchor="middle" x="1560" y="-192.6" font-family="Times,serif" font-size="14.00">AppComponent </text>
</g>
<!-- AppModule&#45;&gt;AppComponent  -->
<g id="edge19" class="edge">
<title>AppModule&#45;&gt;AppComponent </title>
<path fill="none" stroke="black" stroke-dasharray="1,5" d="M1560,-149.91C1560,-149.91 1560,-168.79 1560,-168.79"/>
<polygon fill="black" stroke="black" points="1556.5,-168.79 1560,-178.79 1563.5,-168.79 1556.5,-168.79"/>
</g>
<!-- AppRoutingModule -->
<g id="node19" class="node">
<title>AppRoutingModule</title>
<polygon fill="#8dd3c7" stroke="black" points="152.27,-84.8 149.27,-88.8 128.27,-88.8 125.27,-84.8 23.73,-84.8 23.73,-48.8 152.27,-48.8 152.27,-84.8"/>
<text text-anchor="middle" x="88" y="-62.6" font-family="Times,serif" font-size="14.00">AppRoutingModule</text>
</g>
<!-- AppRoutingModule&#45;&gt;AppModule -->
<g id="edge18" class="edge">
<title>AppRoutingModule&#45;&gt;AppModule</title>
<path fill="none" stroke="black" d="M88,-85.12C88,-108.46 88,-145.8 88,-145.8 88,-145.8 1508.32,-145.8 1508.32,-145.8"/>
<polygon fill="black" stroke="black" points="1508.32,-149.3 1518.32,-145.8 1508.32,-142.3 1508.32,-149.3"/>
</g>
</g>
</svg>
